<?xml version="1.0" encoding="UTF-8"?>
<svg id="Layer_1" data-name="Layer 1" xmlns="http://www.w3.org/2000/svg" viewBox="0 0 164.56 178.53">
  <defs>
    <style>
      .cls-1 {
        stroke: #011e3c;
      }

      .cls-1, .cls-2 {
        fill: none;
        stroke-miterlimit: 10;
        stroke-width: 3px;
      }

      .cls-3 {
        fill: #6883a1;
      }

      .cls-4 {
        fill: #011e3c;
      }

      .cls-2 {
        stroke: #6883a1;
      }
    </style>
  </defs>
  <path class="cls-4" d="M77.59,57.94v58.85l11.82-8.21-.75-35.46,21.28,16.55,34.96-30.12-9.33-1-25.13,19.41-22.27-20.03s-10.83,0-10.58,0Z"/>
  <polygon class="cls-3" points="94.38 81.33 94.38 92.78 109.94 106.84 142.91 76.73 142.91 107.46 151.25 109.95 151.25 66.15 141.79 66.15 111.24 95.14 94.38 81.33"/>
  <polygon class="cls-4" points="125.74 77.85 157.84 50.72 154.61 48.23 164.56 46.37 162.2 54.21 159.46 52.21 125.74 77.85"/>
  <polygon class="cls-1" points="63.57 7.05 68.17 19.37 78.87 16.38 74.76 2.07 63.57 7.05"/>
  <polygon class="cls-3" points="45.24 17.13 53.95 29.44 62.53 23.29 53.88 9.16 45.24 17.13"/>
  <polygon class="cls-1" points="34.66 29.44 43.37 37.28 49.22 29.44 41.01 22.1 34.66 29.44"/>
  <polygon class="cls-1" points="19.6 37.28 15.75 51.34 34.66 57.94 38.52 44.38 19.6 37.28"/>
  <polygon class="cls-3" points="12.14 57.94 11.27 67.39 26.32 68.89 27.13 59.68 12.14 57.94"/>
  <polygon class="cls-1" points="1.5 75.86 1.5 89.67 19.2 89.67 19.2 76.85 1.5 75.86"/>
  <polygon class="cls-3" points="6.54 98 7.66 107.21 18.11 105.97 16.49 95.39 6.54 98"/>
  <polygon class="cls-3" points="26.96 85.95 26.96 94.91 39.53 94.91 39.53 86.7 26.96 85.95"/>
  <polygon class="cls-1" points="29.43 68.89 29.43 75.86 42.5 77.85 42.5 70.13 29.43 68.89"/>
  <polygon class="cls-4" points="25.7 101.86 27.13 109.45 41.94 106.46 39.64 98.63 25.7 101.86"/>
  <polygon class="cls-3" points="16.73 119.9 19.84 127.24 30.04 121.4 26.43 114.68 16.73 119.9"/>
  <polygon class="cls-1" points="34.54 120.03 38.52 126.62 51.71 120.03 47.97 112.69 34.54 120.03"/>
  <polygon class="cls-1" points="28.06 140.06 34.54 146.65 41.94 139.31 35.97 132.1 28.06 140.06"/>
  <polygon class="cls-3" points="38.52 155.11 51.21 139.37 58.42 145.53 44.36 161.09 38.52 155.11"/>
  <polygon class="cls-3" points="50.98 133.61 58.94 126.52 62.8 131 55.58 138.46 50.98 133.61"/>
  <polygon class="cls-2" points="68.38 139.37 58.42 154.24 68.38 161.09 77.58 144.91 68.38 139.37"/>
  <polygon class="cls-1" points="77.6 126.73 74.24 135.44 82.08 139.42 85.44 131.34 77.6 126.73"/>
  <polygon class="cls-3" points="67.75 123.91 64.77 128.39 69.37 132.37 73.6 128.14 67.75 123.91"/>
  <polygon class="cls-1" points="62.66 112.69 57.93 118.04 61.54 122.89 66.76 117.79 62.66 112.69"/>
  <polygon class="cls-3" points="53.21 106.6 55.89 112.57 60.43 109.96 57.69 103.99 53.21 106.6"/>
  <polygon class="cls-1" points="48.47 95.39 49.96 101.3 56.31 99.87 54.38 94.15 48.47 95.39"/>
  <path class="cls-3" d="M48.49,83.22c.25.37,0,7.71,0,7.71h7.59v-7.71h-7.59Z"/>
  <polygon class="cls-1" points="51.21 67.02 49.78 73.86 55.31 75.36 56.81 68.89 51.21 67.02"/>
  <polygon class="cls-3" points="60.43 59.7 56.89 64.61 60.43 67.79 63.92 62.69 60.43 59.7"/>
  <path class="cls-1" d="M62.29,53.71c-.12-.5,4.73-5.1,4.73-5.1l2.98,4.23-3.86,4.35-3.85-3.48Z"/>
  <polygon class="cls-1" points="71.82 45.43 75.18 48.79 79.41 45.92 75.62 41.57 71.82 45.43"/>
  <polygon class="cls-1" points="54.38 35.17 62.34 46.12 69 41.64 61.41 30.19 54.38 35.17"/>
  <polygon class="cls-3" points="81.34 38.78 83.46 44.25 89.19 41.51 86.7 36.41 81.34 38.78"/>
  <polygon class="cls-3" points="70.62 24.59 74.04 35.42 81.69 32.31 77.58 21.61 70.62 24.59"/>
  <polygon class="cls-1" points="41.94 51.72 46.6 44.25 56.81 51.72 51.71 57.94 41.94 51.72"/>
  <polygon class="cls-4" points="57.93 159.72 51.71 173.16 62.34 178.53 69 164.45 57.93 159.72"/>
</svg>